<?xml version="1.0" encoding="UTF-8"?>
<svg version="1.1" xmlns="http://www.w3.org/2000/svg" width="360" height="310">
<path d="M0 0 C118.8 0 237.6 0 360 0 C360 102.3 360 204.6 360 310 C241.2 310 122.4 310 0 310 C0 207.7 0 105.4 0 0 Z " fill="#F7F9FA" transform="translate(0,0)"/>
<path d="M0 0 C1.42628332 -0.01075258 2.85259037 -0.01838326 4.27890015 -0.02471924 C5.07317099 -0.02930775 5.86744183 -0.03389626 6.68578148 -0.03862381 C9.82035836 0.0136916 12.82306029 0.44265146 15.9140625 0.953125 C17.16203613 1.1579248 18.41000977 1.36272461 19.69580078 1.57373047 C20.99243652 1.79689941 22.28907227 2.02006836 23.625 2.25 C24.29529236 2.36426331 24.96558472 2.47852661 25.65618896 2.59625244 C35.27010141 4.24151993 44.70031859 6.00640787 54 9 C54.72703125 9.22349121 55.4540625 9.44698242 56.203125 9.67724609 C78.38195254 16.54923984 98.99019918 26.87323633 115 44 C118.76168949 42.7461035 119.55556093 41.07753121 122 38 C138.89346743 23.08237671 159.51821116 14.11429108 181 8 C182.2065625 7.65066406 183.413125 7.30132812 184.65625 6.94140625 C193.1843493 4.63917776 201.77479945 3.11821755 210.5 1.75 C211.61036621 1.57460693 212.72073242 1.39921387 213.86474609 1.21850586 C214.93031738 1.05874268 215.99588867 0.89897949 217.09375 0.734375 C218.51204102 0.52119629 218.51204102 0.52119629 219.95898438 0.30371094 C223.62248988 -0.06216903 227.31826933 0 231 0 C231 58.08 231 116.16 231 176 C222.75 176.99 214.5 177.98 206 179 C200.87174365 180.21355685 196.00355091 181.45684878 191 183 C188.60416667 183.64583333 186.20833333 184.29166667 183.8125 184.9375 C161.27613827 191.4811297 141.77345947 203.76525018 125 220 C124.25105469 220.72058594 123.50210938 221.44117188 122.73046875 222.18359375 C119.45006115 225.28107994 119.45006115 225.28107994 117 229 C113.34741183 227.50464511 111.45184421 225.44061392 108.9375 222.4375 C92.72974246 204.06518852 69.86380504 192.7895121 47 185 C46.26362305 184.73944824 45.52724609 184.47889648 44.76855469 184.21044922 C31.09488913 179.42206232 17.59006307 177.53241721 3.18286133 176.29370117 C1 176 1 176 0 175 C-0.09706134 172.7470898 -0.12186638 170.49106821 -0.12025452 168.23606873 C-0.12110894 167.52059264 -0.12196337 166.80511655 -0.12284368 166.06795937 C-0.12450058 163.65262186 -0.11897371 161.23735267 -0.11352539 158.82202148 C-0.11324354 157.09775799 -0.11340121 155.37349438 -0.1139679 153.64923096 C-0.11425595 148.95314853 -0.10835802 144.25709141 -0.10139394 139.56101489 C-0.09516164 134.65892841 -0.0945567 129.75684142 -0.09336853 124.85475159 C-0.09025485 115.56517104 -0.08204096 106.2756022 -0.07201904 96.98602682 C-0.06085905 86.4130504 -0.05534774 75.84007343 -0.05032361 65.26709259 C-0.03985838 43.51138851 -0.02225823 21.75569499 0 0 Z " fill="#49AEAF" transform="translate(60,35)"/>
<path d="M0 0 C1.42628332 -0.01075258 2.85259037 -0.01838326 4.27890015 -0.02471924 C5.07317099 -0.02930775 5.86744183 -0.03389626 6.68578148 -0.03862381 C9.82035836 0.0136916 12.82306029 0.44265146 15.9140625 0.953125 C17.16203613 1.1579248 18.41000977 1.36272461 19.69580078 1.57373047 C20.99243652 1.79689941 22.28907227 2.02006836 23.625 2.25 C24.29529236 2.36426331 24.96558472 2.47852661 25.65618896 2.59625244 C35.27010141 4.24151993 44.70031859 6.00640787 54 9 C54.72703125 9.22349121 55.4540625 9.44698242 56.203125 9.67724609 C77.70271556 16.33878181 100.08887592 26.50428108 115 44 C116.48679725 46.97359449 116.11112605 49.66299179 116.09765625 52.9765625 C116.0962413 53.66181 116.09482635 54.3470575 116.09336853 55.05307007 C116.08776675 57.24375761 116.07521406 59.4343433 116.0625 61.625 C116.05748522 63.10937352 116.05292228 64.59374865 116.04882812 66.078125 C116.03779677 69.71878315 116.02053099 73.35938164 116 77 C111.94257684 75.72333987 108.56406745 74.24355621 104.95043945 71.9777832 C98.88550171 68.18394249 94.29204449 65.68504116 87 67 C84.58158568 68.95615331 84.01144412 69.96566763 83 73 C82.89358858 75.63533591 82.84275698 78.24461624 82.83886719 80.88037109 C82.83390228 81.68232407 82.82893738 82.48427704 82.82382202 83.31053162 C82.80921099 85.96484229 82.80240041 88.61909321 82.796875 91.2734375 C82.79112298 93.11805218 82.78536525 94.96266685 82.77960205 96.80728149 C82.76909529 100.67588581 82.7632504 104.54446936 82.75976562 108.41308594 C82.7542795 113.36858121 82.73024759 118.32380191 82.70179367 123.27921104 C82.68316485 127.08992311 82.67796158 130.90056903 82.67642975 134.71132278 C82.67340359 136.53815844 82.66537628 138.36499294 82.65224457 140.19178391 C82.63517779 142.74834818 82.63706566 145.30424161 82.64355469 147.86083984 C82.6343399 148.61426163 82.62512512 149.36768341 82.6156311 150.14393616 C82.65446156 155.03099079 83.48110132 158.48110132 87 162 C94.66479365 162.72352034 98.97774739 160.98019728 105.4375 157 C107.01762827 156.05929612 108.59957182 155.12163256 110.18359375 154.1875 C110.86993896 153.76855469 111.55628418 153.34960938 112.26342773 152.91796875 C114 152 114 152 116 152 C116 176.75 116 201.5 116 227 C111.78791515 225.94697879 111.49603005 225.78794357 109.0625 222.625 C93.29451399 203.8647949 69.78775093 192.76360108 47 185 C46.26362305 184.73944824 45.52724609 184.47889648 44.76855469 184.21044922 C31.09488913 179.42206232 17.59006307 177.53241721 3.18286133 176.29370117 C1 176 1 176 0 175 C-0.09706134 172.7470898 -0.12186638 170.49106821 -0.12025452 168.23606873 C-0.12110894 167.52059264 -0.12196337 166.80511655 -0.12284368 166.06795937 C-0.12450058 163.65262186 -0.11897371 161.23735267 -0.11352539 158.82202148 C-0.11324354 157.09775799 -0.11340121 155.37349438 -0.1139679 153.64923096 C-0.11425595 148.95314853 -0.10835802 144.25709141 -0.10139394 139.56101489 C-0.09516164 134.65892841 -0.0945567 129.75684142 -0.09336853 124.85475159 C-0.09025485 115.56517104 -0.08204096 106.2756022 -0.07201904 96.98602682 C-0.06085905 86.4130504 -0.05534774 75.84007343 -0.05032361 65.26709259 C-0.03985838 43.51138851 -0.02225823 21.75569499 0 0 Z " fill="#223C6D" transform="translate(60,35)"/>
<path d="M0 0 C6.45356682 0.16214345 11.24927065 3.39062449 16.66015625 6.6328125 C17.74643311 7.26300293 18.83270996 7.89319336 19.9519043 8.54248047 C22.21961693 9.86101327 24.48236264 11.1881231 26.74023438 12.5234375 C29.93698763 14.41285071 33.14673264 16.27734613 36.36328125 18.1328125 C42.2935585 21.55950124 48.19915212 25.02677716 54.09765625 28.5078125 C55.06832031 29.07902832 56.03898437 29.65024414 57.0390625 30.23876953 C59.83285426 31.8852454 62.62233014 33.53875969 65.41015625 35.1953125 C66.24651611 35.68854004 67.08287598 36.18176758 67.94458008 36.68994141 C69.0973645 37.37902588 69.0973645 37.37902588 70.2734375 38.08203125 C70.94286377 38.47994873 71.61229004 38.87786621 72.30200195 39.2878418 C74.89770059 41.05136404 76.85195042 42.43284949 77.56640625 45.55859375 C77.581875 46.67814453 77.581875 46.67814453 77.59765625 47.8203125 C77.62859375 48.55894531 77.65953125 49.29757813 77.69140625 50.05859375 C76.54043658 54.80634363 72.99683621 57.87503426 69.13769531 60.59082031 C68.05713867 61.20795898 66.97658203 61.82509766 65.86328125 62.4609375 C65.27278992 62.80266495 64.68229858 63.1443924 64.07391357 63.49647522 C62.17118136 64.59447507 60.25970177 65.67612788 58.34765625 66.7578125 C57.02276985 67.5186139 55.69855436 68.2805848 54.375 69.04370117 C51.77832748 70.53937831 49.17868777 72.02965192 46.57617188 73.51513672 C43.04931756 75.53097414 39.54649409 77.58536915 36.05371094 79.65966797 C34.11535712 80.80980951 32.1698366 81.94691028 30.22265625 83.08203125 C27.03361273 84.94467944 23.87735873 86.8571623 20.72265625 88.77734375 C18.84799968 89.89640885 16.97300347 91.01490519 15.09765625 92.1328125 C14.2365625 92.66688721 13.37546875 93.20096191 12.48828125 93.7512207 C7.06230339 96.95025171 2.45131348 98.75704285 -3.90234375 97.5078125 C-6.9345005 95.30949886 -7.71888773 94.05818056 -8.90234375 90.5078125 C-9.00875517 87.87247659 -9.05958677 85.26319626 -9.06347656 82.62744141 C-9.06844147 81.82548843 -9.07340637 81.02353546 -9.07852173 80.19728088 C-9.09313276 77.54297021 -9.09994334 74.88871929 -9.10546875 72.234375 C-9.11122077 70.38976032 -9.1169785 68.54514565 -9.1227417 66.70053101 C-9.13324846 62.83192669 -9.13909335 58.96334314 -9.14257812 55.09472656 C-9.14806425 50.13923129 -9.17209616 45.18401059 -9.20055008 40.22860146 C-9.2191789 36.41788939 -9.22438217 32.60724347 -9.225914 28.79648972 C-9.22894016 26.96965406 -9.23696747 25.14281956 -9.25009918 23.31602859 C-9.26716596 20.75946432 -9.26527809 18.20357089 -9.25878906 15.64697266 C-9.26800385 14.89355087 -9.27721863 14.14012909 -9.28671265 13.36387634 C-9.23241122 6.52970359 -7.25973293 0.94470999 0 0 Z " fill="#E8A034" transform="translate(150.90234375,100.4921875)"/>
<path d="M0 0 C3.96 0 7.92 0 12 0 C12 53.79 12 107.58 12 163 C17.28 163 22.56 163 28 163 C32.04261781 163.35625569 35.99078795 163.755911 40 164.3125 C41.02689941 164.44930176 42.05379883 164.58610352 43.11181641 164.72705078 C77.35430013 169.40258038 108.31207373 180.4105099 137 200 C132.75079869 201.41640044 129.91558816 199.64733356 125.9375 198.0625 C88.94604539 183.96538771 51.46975926 177.90725162 12.05078125 176.4765625 C10.79543579 176.43055908 9.54009033 176.38455566 8.2467041 176.3371582 C5.16448712 176.22427796 2.08225245 176.11190687 -1 176 C-1.02332654 153.20010659 -1.04097797 130.40021514 -1.05181217 107.60031223 C-1.05697565 97.01470606 -1.06401933 86.42910728 -1.07543945 75.84350586 C-1.08538471 66.62062241 -1.09185305 57.39774431 -1.09408849 48.17485565 C-1.09539587 43.28823588 -1.09848342 38.40163143 -1.10573006 33.51501656 C-1.11248778 28.92112539 -1.11461747 24.32725595 -1.11310768 19.73336029 C-1.11338412 18.04220652 -1.11539071 16.35105206 -1.11920547 14.65990257 C-1.12413887 12.36121824 -1.12299962 10.0626173 -1.12025452 7.76393127 C-1.12117631 6.47434289 -1.1220981 5.18475451 -1.12304783 3.85608768 C-1 1 -1 1 0 0 Z " fill="#2A4373" transform="translate(34,62)"/>
<path d="M0 0 C3.96 0 7.92 0 12 0 C12 57.75 12 115.5 12 175 C-3.84 175.495 -3.84 175.495 -20 176 C-28.49644041 176.7549054 -28.49644041 176.7549054 -36.95019531 177.73828125 C-39.04541754 178.0057989 -41.1423284 178.24069351 -43.2421875 178.46875 C-51.67149154 179.40709346 -59.77340277 180.96003267 -68 183 C-69.93054885 183.42723625 -71.86110195 183.85445343 -73.79174805 184.28125 C-89.69153656 187.85884217 -105.37914205 192.52566447 -120.33203125 199.03125 C-121.21246094 199.3509375 -122.09289062 199.670625 -123 200 C-123.66 199.67 -124.32 199.34 -125 199 C-111.30485743 189.8810801 -97.92478668 181.28472132 -82.21875 176.10546875 C-78.98583506 175.05872243 -78.98583506 175.05872243 -75.96484375 173.58203125 C-70.2567205 171.09445977 -64.10558139 169.90185169 -58.0625 168.5 C-57.40237915 168.34659149 -56.7422583 168.19318298 -56.06213379 168.03512573 C-47.1806148 165.98785988 -38.29627479 164.22406354 -29.25 163.0625 C-28.37351807 162.94648438 -27.49703613 162.83046875 -26.59399414 162.7109375 C-17.64092726 161.69122978 -9.16445572 162 0 162 C0 108.54 0 55.08 0 0 Z " fill="#243F72" transform="translate(306,63)"/>
<path d="M0 0 C6.45356682 0.16214345 11.24927065 3.39062449 16.66015625 6.6328125 C17.74643311 7.26300293 18.83270996 7.89319336 19.9519043 8.54248047 C22.21961693 9.86101327 24.48236264 11.1881231 26.74023438 12.5234375 C29.93698763 14.41285071 33.14673264 16.27734613 36.36328125 18.1328125 C42.2935585 21.55950124 48.19915212 25.02677716 54.09765625 28.5078125 C55.06832031 29.07902832 56.03898437 29.65024414 57.0390625 30.23876953 C59.83285426 31.8852454 62.62233014 33.53875969 65.41015625 35.1953125 C66.24651611 35.68854004 67.08287598 36.18176758 67.94458008 36.68994141 C69.0973645 37.37902588 69.0973645 37.37902588 70.2734375 38.08203125 C70.94286377 38.47994873 71.61229004 38.87786621 72.30200195 39.2878418 C74.89770059 41.05136404 76.85195042 42.43284949 77.56640625 45.55859375 C77.581875 46.67814453 77.581875 46.67814453 77.59765625 47.8203125 C77.62859375 48.55894531 77.65953125 49.29757813 77.69140625 50.05859375 C76.54043658 54.80634363 72.99683621 57.87503426 69.13769531 60.59082031 C68.05713867 61.20795898 66.97658203 61.82509766 65.86328125 62.4609375 C65.27278992 62.80266495 64.68229858 63.1443924 64.07391357 63.49647522 C62.17118136 64.59447507 60.25970177 65.67612788 58.34765625 66.7578125 C57.02276985 67.5186139 55.69855436 68.2805848 54.375 69.04370117 C51.77832748 70.53937831 49.17868777 72.02965192 46.57617188 73.51513672 C43.04931756 75.53097414 39.54649409 77.58536915 36.05371094 79.65966797 C34.11535712 80.80980951 32.1698366 81.94691028 30.22265625 83.08203125 C27.03361273 84.94467944 23.87735873 86.8571623 20.72265625 88.77734375 C18.84799968 89.89640885 16.97300347 91.01490519 15.09765625 92.1328125 C14.2365625 92.66688721 13.37546875 93.20096191 12.48828125 93.7512207 C7.06230339 96.95025171 2.45131348 98.75704285 -3.90234375 97.5078125 C-6.9345005 95.30949886 -7.71888773 94.05818056 -8.90234375 90.5078125 C-9.00875517 87.87247659 -9.05958677 85.26319626 -9.06347656 82.62744141 C-9.06844147 81.82548843 -9.07340637 81.02353546 -9.07852173 80.19728088 C-9.09313276 77.54297021 -9.09994334 74.88871929 -9.10546875 72.234375 C-9.11122077 70.38976032 -9.1169785 68.54514565 -9.1227417 66.70053101 C-9.13324846 62.83192669 -9.13909335 58.96334314 -9.14257812 55.09472656 C-9.14806425 50.13923129 -9.17209616 45.18401059 -9.20055008 40.22860146 C-9.2191789 36.41788939 -9.22438217 32.60724347 -9.225914 28.79648972 C-9.22894016 26.96965406 -9.23696747 25.14281956 -9.25009918 23.31602859 C-9.26716596 20.75946432 -9.26527809 18.20357089 -9.25878906 15.64697266 C-9.26800385 14.89355087 -9.27721863 14.14012909 -9.28671265 13.36387634 C-9.23241122 6.52970359 -7.25973293 0.94470999 0 0 Z M0.09765625 12.5078125 C-0.0072561 14.73625721 -0.04091587 16.96807173 -0.04760742 19.19897461 C-0.05096603 19.89816513 -0.05432465 20.59735565 -0.05778503 21.31773376 C-0.06732168 23.64022576 -0.0692395 25.96264587 -0.0703125 28.28515625 C-0.07352322 29.89319387 -0.07688715 31.50123119 -0.08039856 33.10926819 C-0.08639664 36.48455482 -0.08823777 39.85981583 -0.08764648 43.23510742 C-0.08754483 47.5676255 -0.10119758 51.89997983 -0.11841869 56.23245907 C-0.12951827 59.55494446 -0.13156632 62.87739001 -0.13103676 66.19989204 C-0.13221995 67.79753751 -0.13666057 69.3951839 -0.14436913 70.9928112 C-0.15412797 73.22441056 -0.15130747 75.45565116 -0.14526367 77.68725586 C-0.14668869 78.9588707 -0.14811371 80.23048553 -0.14958191 81.54063416 C-0.21409708 84.62669188 -0.21409708 84.62669188 2.09765625 86.5078125 C9.18767763 86.57389792 14.3191701 82.72926781 20.16015625 79.0703125 C22.36941787 77.71423459 24.5790718 76.35879566 26.7890625 75.00390625 C27.65689865 74.46824036 27.65689865 74.46824036 28.54226685 73.92175293 C33.13029391 71.09008545 37.74627529 68.30754248 42.375 65.54296875 C43.06159195 65.13274979 43.7481839 64.72253082 44.45558167 64.29988098 C46.50274952 63.07720573 48.55018996 61.85498792 50.59765625 60.6328125 C53.17189679 59.09594958 55.74474915 57.55680639 58.31640625 56.015625 C59.40888672 55.36223145 60.50136719 54.70883789 61.62695312 54.03564453 C63.95577577 52.7261962 63.95577577 52.7261962 65.09765625 51.5078125 C65.13846408 49.50822886 65.14019981 47.50735996 65.09765625 45.5078125 C64.44619629 45.13197021 63.79473633 44.75612793 63.12353516 44.36889648 C61.13940294 43.22420482 59.15527223 42.07951055 57.17114258 40.93481445 C54.85067813 39.59609128 52.53020453 38.25738399 50.2097168 36.91870117 C44.67895392 33.72799017 39.14826329 30.53715439 33.61804199 27.34550476 C31.8493915 26.32477341 30.08070671 25.30410152 28.31201172 24.28344727 C26.0883109 23.00019922 23.86467532 21.71683811 21.64111328 20.43334961 C19.65584054 19.28775836 17.66974134 18.1435975 15.68261719 17.0012207 C14.08677819 16.07925743 12.49528833 15.14966052 10.91113281 14.20776367 C5.54877412 10.8165726 5.54877412 10.8165726 0.09765625 12.5078125 Z " fill="#F6F8F5" transform="translate(150.90234375,100.4921875)"/>
<path d="M0 0 C0.59280762 0.20085205 1.18561523 0.4017041 1.79638672 0.60864258 C0.74451172 1.73399414 0.74451172 1.73399414 -0.32861328 2.88208008 C-6.24417799 9.2476966 -11.92058857 15.7000718 -17.20361328 22.60864258 C-17.78626953 23.31504883 -18.36892578 24.02145508 -18.96923828 24.74926758 C-28.08078236 36.48756311 -33.22848549 51.884213 -34.20361328 66.60864258 C-34.53361328 66.60864258 -34.86361328 66.60864258 -35.20361328 66.60864258 C-35.53361328 51.09864258 -35.86361328 35.58864258 -36.20361328 19.60864258 C-30.26361328 16.30864258 -24.32361328 13.00864258 -18.20361328 9.60864258 C-14.54236472 7.31966352 -10.93331184 5.01061486 -7.36376953 2.5871582 C-2.66850693 -0.47392163 -2.66850693 -0.47392163 0 0 Z " fill="#2D8B91" transform="translate(211.20361328125,166.391357421875)"/>
<path d="M0 0 C0 13.53 0 27.06 0 41 C-1.68984442 37.62031116 -2.2907259 35.8731782 -2.8125 32.3125 C-4.4714346 23.5548685 -9.55550232 16.86642834 -15 10 C-12.49768805 4.16127211 -6.37502085 0 0 0 Z " fill="#172C55" transform="translate(175,188)"/>
<path d="M0 0 C0.66 0.33 1.32 0.66 2 1 C1.2059375 1.75925781 0.411875 2.51851562 -0.40625 3.30078125 C-1.43789055 4.30428615 -2.46911931 5.30821452 -3.5 6.3125 C-4.02464844 6.81201172 -4.54929688 7.31152344 -5.08984375 7.82617188 C-6.4510846 9.16089504 -7.73139516 10.5769384 -9 12 C-9 12.99 -9 13.98 -9 15 C-10.875 17.1875 -10.875 17.1875 -13 19 C-13.66 19 -14.32 19 -15 19 C-15.33 18.01 -15.66 17.02 -16 16 C-10.72 10.72 -5.44 5.44 0 0 Z " fill="#EBF4F4" transform="translate(193,246)"/>
<path d="M0 0 C1.81612488 0.95144598 3.62781081 1.91136933 5.4375 2.875 C6.44683594 3.40867187 7.45617187 3.94234375 8.49609375 4.4921875 C11 6 11 6 12 8 C6.23955788 7.39363767 1.27985631 5.24341721 -4 3 C-2.68 2.67 -1.36 2.34 0 2 C0 1.34 0 0.68 0 0 Z " fill="#516690" transform="translate(159,255)"/>
<path d="M0 0 C0.66 0.33 1.32 0.66 2 1 C1.67 1.33 1.34 1.66 1 2 C1.66 2.66 2.32 3.32 3 4 C0.87875034 4.86343824 -1.24713072 5.71550648 -3.375 6.5625 C-5.15003906 7.27599609 -5.15003906 7.27599609 -6.9609375 8.00390625 C-10 9 -10 9 -12 8 C-8.04 5.36 -4.08 2.72 0 0 Z " fill="#3D5585" transform="translate(193,254)"/>
<path d="M0 0 C-1.61594832 2.04119788 -3.2856382 4.04072937 -5 6 C-5.66 6 -6.32 6 -7 6 C-7.33 5.01 -7.66 4.02 -8 3 C-5.53387212 -0.1151089 -3.89156016 -0.31553191 0 0 Z " fill="#CBD8DE" transform="translate(185,259)"/>
<path d="M0 0 C1.68762851 1.6454378 3.3540349 3.31288577 5 5 C5 5.33 5 5.66 5 6 C3.35 6 1.7 6 0 6 C0 5.34 0 4.68 0 4 C-0.66 3.34 -1.32 2.68 -2 2 C-1.34 2 -0.68 2 0 2 C0 1.34 0 0.68 0 0 Z " fill="#C9D0DB" transform="translate(170,258)"/>
</svg>
